<svg xmlns="http://www.w3.org/2000/svg" viewBox="32 26 778 540">
  <defs>
    <style>
      .st0 {
        fill: #1d1d1b;
      }

      .st1 {
        fill: #e20613;
      }
    </style>
  </defs>
  <path class="st0" d="M307.66,379.51c0,24.26,18.89,33.71,40.34,33.71,14.05,0,35.5-4.09,35.5-22.72,0-19.67-27.33-22.98-54.14-30.13-27.07-7.15-54.39-17.62-54.39-51.84,0-37.28,35.23-55.16,68.18-55.16,38.05,0,73.04,16.6,73.04,58.73h-38.81c-1.28-21.96-16.86-27.58-36.01-27.58-12.77,0-27.58,5.36-27.58,20.68,0,14.04,8.68,15.83,54.39,27.58,13.28,3.32,54.14,11.75,54.14,53.12,0,33.45-26.3,58.48-75.84,58.48-40.35,0-78.15-19.91-77.64-64.86h38.82Z"/>
  <rect class="st0" x="446.06" y="257.7" width="40.09" height="182.33"/>
  <polygon class="st0" points="521.39 257.7 561.48 257.7 561.48 406.33 650.35 406.33 650.35 440.04 521.39 440.04 521.39 257.7"/>
  <polygon class="st0" points="672.81 257.7 712.91 257.7 712.91 406.33 801.78 406.33 801.78 440.04 672.81 440.04 672.81 257.7"/>
  <path class="st0" d="M168.31,495.36c-.12,6.32,4.43,8.26,10.03,8.26,3.22,0,8.13-1.77,8.13-6.24,0-3.49-3.48-4.86-6.33-5.55l-6.85-1.68c-3.61-.91-6.93-2.62-6.93-7.4,0-3.01,1.94-8.65,10.59-8.65,6.07,0,11.4,3.27,11.36,9.56h-2.93c-.17-4.69-4.04-7.06-8.39-7.06-4.01,0-7.7,1.55-7.7,6.12,0,2.88,2.15,4.08,4.65,4.69l7.49,1.85c4.35,1.17,7.96,3.06,7.96,8.1,0,2.11-.86,8.78-11.75,8.78-7.27,0-12.62-3.27-12.26-10.76h2.92Z"/>
  <path class="st0" d="M196.16,494.37c0,4.74,2.59,9.47,7.79,9.47s7.79-4.73,7.79-9.47-2.59-9.47-7.79-9.47-7.79,4.73-7.79,9.47M214.46,494.37c0,6.37-3.71,11.75-10.51,11.75s-10.5-5.38-10.5-11.75,3.7-11.75,10.5-11.75,10.51,5.38,10.51,11.75"/>
  <path class="st0" d="M235.2,490.24c-.73-3.31-2.75-5.33-6.29-5.33-5.2,0-7.79,4.73-7.79,9.47s2.59,9.47,7.79,9.47c3.36,0,6.12-2.63,6.46-6.33h2.71c-.73,5.34-4.22,8.61-9.17,8.61-6.79,0-10.5-5.38-10.5-11.75s3.71-11.75,10.5-11.75c4.74,0,8.4,2.54,9,7.62h-2.71Z"/>
  <path class="st0" d="M242.96,505.47h2.71v-22.21h-2.71v22.21ZM242.96,479.09h2.71v-4.35h-2.71v4.35Z"/>
  <path class="st0" d="M260.16,480.17h-2.19l4.52-6.07h3.35l-5.68,6.07ZM267.91,492.82c-.12-4.09-2.66-7.92-7.05-7.92s-6.89,3.87-7.32,7.92h14.37ZM253.53,495.1c.04,3.96,2.11,8.74,7.32,8.74,3.96,0,6.11-2.33,6.97-5.68h2.71c-1.16,5.03-4.09,7.96-9.68,7.96-7.06,0-10.03-5.43-10.03-11.75,0-5.85,2.97-11.75,10.03-11.75s9.98,6.24,9.77,12.48h-17.09Z"/>
  <path class="st0" d="M279.63,483.27h4.52v2.28h-4.52v14.98c0,1.77.26,2.8,2.19,2.93.78,0,1.55-.04,2.32-.13v2.33c-.82,0-1.59.09-2.41.09-3.61,0-4.87-1.2-4.82-4.99v-15.2h-3.87v-2.28h3.87v-6.67h2.71v6.67Z"/>
  <path class="st0" d="M297.34,480.17h-2.2l4.53-6.07h3.35l-5.68,6.07ZM305.09,492.82c-.12-4.09-2.66-7.92-7.05-7.92s-6.89,3.87-7.32,7.92h14.37ZM290.71,495.1c.04,3.96,2.11,8.74,7.32,8.74,3.96,0,6.11-2.33,6.97-5.68h2.71c-1.16,5.03-4.09,7.96-9.68,7.96-7.06,0-10.03-5.43-10.03-11.75,0-5.85,2.97-11.75,10.03-11.75s9.98,6.24,9.77,12.48h-17.09Z"/>
  <rect class="st0" x="326.25" y="474.74" width="2.93" height="30.73"/>
  <path class="st0" d="M336.14,483.27h2.5v3.74h.13c1.42-2.67,3.74-4.39,7.27-4.39,2.93,0,5.55,1.42,6.37,4.35,1.33-2.93,4.13-4.35,7.06-4.35,4.87,0,7.36,2.54,7.36,7.79v15.06h-2.71v-14.93c0-3.66-1.38-5.64-5.25-5.64-4.69,0-6.03,3.87-6.03,8.01v12.57h-2.71v-15.06c.04-3.01-1.2-5.51-4.65-5.51-4.69,0-6.59,3.53-6.63,8.17v12.4h-2.71v-22.21Z"/>
  <path class="st0" d="M373.01,483.27h2.5v3.74h.13c1.42-2.67,3.74-4.39,7.27-4.39,2.93,0,5.55,1.42,6.37,4.35,1.34-2.93,4.13-4.35,7.06-4.35,4.87,0,7.36,2.54,7.36,7.79v15.06h-2.71v-14.93c0-3.66-1.38-5.64-5.25-5.64-4.69,0-6.03,3.87-6.03,8.01v12.57h-2.71v-15.06c.04-3.01-1.2-5.51-4.65-5.51-4.69,0-6.59,3.53-6.63,8.17v12.4h-2.71v-22.21Z"/>
  <path class="st0" d="M411.48,494.37c0,4.74,2.59,9.47,7.79,9.47s7.79-4.73,7.79-9.47-2.59-9.47-7.79-9.47-7.79,4.73-7.79,9.47M429.77,494.37c0,6.37-3.71,11.75-10.51,11.75s-10.5-5.38-10.5-11.75,3.7-11.75,10.5-11.75,10.51,5.38,10.51,11.75"/>
  <path class="st0" d="M445.36,484.9c-5.76,0-7.79,4.86-7.79,9.47s2.03,9.47,7.79,9.47c5.17,0,7.28-4.86,7.28-9.47s-2.11-9.47-7.28-9.47M434.86,474.75h2.71v12.74h.09c1.16-3.18,4.38-4.86,7.69-4.86,6.76,0,9.99,5.47,9.99,11.75s-3.23,11.75-9.99,11.75c-3.56,0-6.67-1.86-7.91-4.87h-.09v4.22h-2.5v-30.73Z"/>
  <path class="st0" d="M460.65,505.47h2.71v-22.21h-2.71v22.21ZM460.65,479.09h2.71v-4.35h-2.71v4.35Z"/>
  <rect class="st0" x="469.67" y="474.74" width="2.7" height="30.73"/>
  <path class="st0" d="M478.7,505.47h2.7v-22.21h-2.7v22.21ZM478.7,479.09h2.7v-4.35h-2.7v4.35Z"/>
  <path class="st0" d="M490.95,474.1h3.35l4.53,6.07h-2.2l-5.68-6.07ZM503.64,492.82c-.12-4.09-2.66-7.92-7.05-7.92s-6.89,3.87-7.32,7.92h14.37ZM489.27,495.1c.04,3.96,2.11,8.74,7.32,8.74,3.96,0,6.11-2.33,6.97-5.68h2.71c-1.16,5.03-4.09,7.96-9.68,7.96-7.06,0-10.03-5.43-10.03-11.75,0-5.85,2.97-11.75,10.03-11.75s9.98,6.24,9.77,12.48h-17.09Z"/>
  <path class="st0" d="M511.06,483.27h2.5v5.21h.09c1.37-3.57,4.39-5.68,8.39-5.51v2.71c-4.91-.26-8.26,3.36-8.26,7.96v11.84h-2.71v-22.21Z"/>
  <path class="st0" d="M541.63,492.82c-.12-4.09-2.66-7.92-7.05-7.92s-6.89,3.87-7.32,7.92h14.37ZM527.26,495.1c.04,3.96,2.11,8.74,7.32,8.74,3.96,0,6.11-2.33,6.97-5.68h2.71c-1.16,5.03-4.09,7.96-9.68,7.96-7.06,0-10.03-5.43-10.03-11.75,0-5.85,2.97-11.75,10.03-11.75s9.98,6.24,9.77,12.48h-17.09Z"/>
  <polygon class="st0" points="562.59 474.75 565.52 474.75 565.52 502.98 582.73 502.98 582.73 505.48 562.59 505.48 562.59 474.75"/>
  <path class="st0" d="M600.43,493.34h-.08c-.35.64-1.55.86-2.29.99-4.6.82-10.33.78-10.33,5.12,0,2.71,2.41,4.39,4.95,4.39,4.13,0,7.79-2.63,7.75-6.97v-3.53ZM585.96,490.07c.26-5.21,3.92-7.44,9-7.44,3.91,0,8.18,1.21,8.18,7.14v11.79c0,1.03.52,1.63,1.59,1.63.3,0,.64-.08.86-.17v2.28c-.61.13-1.04.17-1.77.17-2.75,0-3.18-1.55-3.18-3.87h-.09c-1.89,2.89-3.83,4.52-8.09,4.52s-7.44-2.02-7.44-6.5c0-6.25,6.07-6.46,11.92-7.15,2.24-.26,3.49-.56,3.49-3.01,0-3.66-2.63-4.57-5.81-4.57-3.35,0-5.85,1.55-5.94,5.16h-2.71Z"/>
  <path class="st0" d="M627.6,505.47h-2.5v-4h-.09c-1.42,2.97-4.34,4.65-7.65,4.65-5.6,0-7.8-3.27-7.8-8.44v-14.42h2.71v14.46c.13,4,1.64,6.11,5.94,6.11,4.65,0,6.67-4.39,6.67-8.91v-11.66h2.71v22.21Z"/>
  <path class="st0" d="M647.06,489.77c-.13-3.36-2.71-4.86-5.81-4.86-2.41,0-5.25.95-5.25,3.83,0,2.41,2.75,3.27,4.6,3.75l3.62.82c3.1.47,6.33,2.28,6.33,6.15,0,4.82-4.78,6.67-8.91,6.67-5.17,0-8.7-2.41-9.12-7.83h2.71c.21,3.65,2.92,5.55,6.54,5.55,2.54,0,6.07-1.12,6.07-4.22,0-2.58-2.41-3.45-4.86-4.05l-3.49-.78c-3.53-.94-6.2-2.15-6.2-5.94,0-4.51,4.43-6.24,8.35-6.24,4.43,0,7.96,2.33,8.14,7.15h-2.71Z"/>
  <path class="st0" d="M669.71,493.34h-.09c-.35.64-1.55.86-2.28.99-4.6.82-10.33.78-10.33,5.12,0,2.71,2.41,4.39,4.95,4.39,4.13,0,7.79-2.63,7.75-6.97v-3.53ZM655.24,490.07c.26-5.21,3.92-7.44,9-7.44,3.91,0,8.18,1.21,8.18,7.14v11.79c0,1.03.52,1.63,1.59,1.63.3,0,.64-.08.86-.17v2.28c-.61.13-1.04.17-1.77.17-2.75,0-3.18-1.55-3.18-3.87h-.09c-1.89,2.89-3.83,4.52-8.09,4.52s-7.44-2.02-7.44-6.5c0-6.25,6.07-6.46,11.92-7.15,2.24-.26,3.49-.56,3.49-3.01,0-3.66-2.63-4.57-5.81-4.57-3.36,0-5.85,1.55-5.94,5.16h-2.71Z"/>
  <path class="st0" d="M678.84,483.27h2.71v3.83h.08c.99-2.67,3.97-4.48,7.11-4.48,6.24,0,8.14,3.27,8.14,8.57v14.29h-2.71v-13.86c0-3.83-1.25-6.71-5.64-6.71s-6.89,3.27-6.97,7.62v12.95h-2.71v-22.21Z"/>
  <path class="st0" d="M703,483.27h2.71v3.83h.08c.99-2.67,3.97-4.48,7.1-4.48,6.24,0,8.14,3.27,8.14,8.57v14.29h-2.71v-13.86c0-3.83-1.25-6.71-5.64-6.71s-6.89,3.27-6.97,7.62v12.95h-2.71v-22.21Z"/>
  <path class="st0" d="M728.78,494.37c0,4.74,2.59,9.47,7.79,9.47s7.79-4.73,7.79-9.47-2.59-9.47-7.79-9.47-7.79,4.73-7.79,9.47M747.08,494.37c0,6.37-3.71,11.75-10.51,11.75s-10.5-5.38-10.5-11.75,3.7-11.75,10.5-11.75,10.51,5.38,10.51,11.75"/>
  <path class="st0" d="M752.21,505.47h2.7v-22.21h-2.7v22.21ZM752.21,479.09h2.7v-4.35h-2.7v4.35Z"/>
  <path class="st0" d="M774.49,489.77c-.13-3.36-2.71-4.86-5.81-4.86-2.41,0-5.25.95-5.25,3.83,0,2.41,2.75,3.27,4.6,3.75l3.62.82c3.1.47,6.33,2.28,6.33,6.15,0,4.82-4.78,6.67-8.91,6.67-5.17,0-8.7-2.41-9.12-7.83h2.71c.21,3.65,2.92,5.55,6.54,5.55,2.54,0,6.07-1.12,6.07-4.22,0-2.58-2.41-3.45-4.86-4.05l-3.49-.78c-3.53-.94-6.2-2.15-6.2-5.94,0-4.51,4.43-6.24,8.35-6.24,4.43,0,7.96,2.33,8.14,7.15h-2.71Z"/>
  <path class="st0" d="M798.9,492.82c-.12-4.09-2.66-7.92-7.05-7.92s-6.89,3.87-7.32,7.92h14.37ZM784.53,495.1c.04,3.96,2.11,8.74,7.32,8.74,3.96,0,6.11-2.33,6.97-5.68h2.71c-1.16,5.03-4.09,7.96-9.68,7.96-7.06,0-10.03-5.43-10.03-11.75,0-5.85,2.97-11.75,10.03-11.75s9.98,6.24,9.77,12.48h-17.09Z"/>
  <path class="st0" d="M175.65,530.5c-5.98,0-7.79,4.43-7.79,9.47,0,4.61,2.03,9.47,7.79,9.47,5.17,0,7.28-4.86,7.28-9.47s-2.11-9.47-7.28-9.47M165.15,528.87h2.5v4.22h.09c1.24-3.01,4.35-4.86,7.91-4.86,6.76,0,9.99,5.47,9.99,11.75s-3.23,11.75-9.99,11.75c-3.32,0-6.54-1.68-7.7-4.87h-.09v12.44h-2.71v-30.43Z"/>
  <path class="st0" d="M192.48,539.97c0,4.74,2.59,9.47,7.79,9.47s7.79-4.73,7.79-9.47-2.59-9.47-7.79-9.47-7.79,4.73-7.79,9.47M210.78,539.97c0,6.37-3.71,11.75-10.51,11.75s-10.5-5.38-10.5-11.75,3.7-11.75,10.5-11.75,10.51,5.38,10.51,11.75"/>
  <path class="st0" d="M233.86,551.07h-2.5v-4h-.09c-1.42,2.97-4.34,4.65-7.66,4.65-5.59,0-7.79-3.27-7.79-8.44v-14.41h2.71v14.46c.13,4,1.64,6.11,5.94,6.11,4.64,0,6.67-4.39,6.67-8.91v-11.66h2.71v22.21Z"/>
  <path class="st0" d="M240.01,528.87h2.5v5.21h.09c1.37-3.57,4.39-5.68,8.39-5.51v2.71c-4.91-.26-8.26,3.36-8.26,7.96v11.83h-2.71v-22.21Z"/>
  <rect class="st0" x="267.7" y="520.35" width="2.7" height="30.73"/>
  <path class="st0" d="M292.64,538.42c-.12-4.09-2.66-7.92-7.05-7.92s-6.89,3.87-7.32,7.92h14.37ZM278.27,540.7c.04,3.96,2.11,8.74,7.32,8.74,3.96,0,6.11-2.33,6.97-5.68h2.71c-1.16,5.03-4.09,7.96-9.68,7.96-7.06,0-10.03-5.42-10.03-11.75,0-5.85,2.97-11.75,10.03-11.75s9.98,6.24,9.77,12.48h-17.09Z"/>
  <polygon class="st0" points="313.59 520.34 316.52 520.34 316.52 548.58 333.74 548.58 333.74 551.07 313.59 551.07 313.59 520.34"/>
  <path class="st0" d="M338.83,539.97c0,4.74,2.59,9.47,7.79,9.47s7.79-4.73,7.79-9.47-2.59-9.47-7.79-9.47-7.79,4.73-7.79,9.47M357.12,539.97c0,6.37-3.71,11.75-10.51,11.75s-10.5-5.38-10.5-11.75,3.7-11.75,10.5-11.75,10.51,5.38,10.51,11.75"/>
  <path class="st0" d="M378.27,539.72c0-4.35-2.03-9.21-7.15-9.21s-7.32,4.6-7.32,9.21,2.33,8.82,7.32,8.82c4.69,0,7.15-4.31,7.15-8.82M380.97,549.27c-.04,6.63-2.58,10.67-9.85,10.67-4.43,0-8.82-1.98-9.22-6.71h2.71c.6,3.27,3.49,4.43,6.5,4.43,4.99,0,7.15-2.97,7.15-8.39v-3.01h-.09c-1.24,2.71-3.87,4.57-7.05,4.57-7.1,0-10.03-5.08-10.03-11.41s3.61-11.19,10.03-11.19c3.22,0,5.98,2.02,7.05,4.48h.09v-3.83h2.7v20.4Z"/>
  <path class="st0" d="M403.14,538.42c-.12-4.09-2.66-7.92-7.05-7.92s-6.89,3.87-7.32,7.92h14.37ZM388.77,540.7c.04,3.96,2.11,8.74,7.32,8.74,3.96,0,6.11-2.33,6.97-5.68h2.71c-1.16,5.03-4.09,7.96-9.68,7.96-7.06,0-10.03-5.42-10.03-11.75,0-5.85,2.97-11.75,10.03-11.75s9.98,6.24,9.77,12.48h-17.09Z"/>
  <path class="st0" d="M410.55,528.87h2.5v3.74h.13c1.42-2.67,3.75-4.39,7.27-4.39,2.93,0,5.55,1.42,6.37,4.35,1.34-2.93,4.13-4.35,7.06-4.35,4.87,0,7.36,2.54,7.36,7.79v15.06h-2.71v-14.93c0-3.66-1.38-5.64-5.25-5.64-4.69,0-6.03,3.87-6.03,8.01v12.56h-2.71v-15.06c.04-3.01-1.2-5.51-4.65-5.51-4.69,0-6.59,3.53-6.63,8.17v12.39h-2.71v-22.21Z"/>
  <path class="st0" d="M463.4,538.42c-.12-4.09-2.66-7.92-7.05-7.92s-6.89,3.87-7.32,7.92h14.37ZM449.02,540.7c.04,3.96,2.11,8.74,7.32,8.74,3.96,0,6.11-2.33,6.97-5.68h2.71c-1.16,5.03-4.09,7.96-9.68,7.96-7.06,0-10.03-5.42-10.03-11.75,0-5.85,2.97-11.75,10.03-11.75s9.98,6.24,9.77,12.48h-17.09Z"/>
  <path class="st0" d="M470.77,528.87h2.71v3.83h.08c.99-2.67,3.97-4.48,7.1-4.48,6.24,0,8.14,3.27,8.14,8.57v14.29h-2.71v-13.86c0-3.83-1.25-6.71-5.64-6.71s-6.89,3.27-6.97,7.61v12.95h-2.71v-22.21Z"/>
  <path class="st0" d="M499.27,528.87h4.52v2.28h-4.52v14.98c0,1.77.26,2.8,2.19,2.93.78,0,1.55-.04,2.32-.13v2.33c-.82,0-1.59.09-2.41.09-3.61,0-4.87-1.2-4.82-4.99v-15.2h-3.87v-2.28h3.87v-6.67h2.71v6.67Z"/>
  <path class="st0" d="M523.67,540.96c-.12,6.32,4.43,8.26,10.03,8.26,3.22,0,8.13-1.77,8.13-6.24,0-3.49-3.48-4.86-6.33-5.55l-6.85-1.68c-3.61-.9-6.93-2.62-6.93-7.4,0-3.01,1.94-8.65,10.59-8.65,6.07,0,11.4,3.27,11.36,9.56h-2.93c-.17-4.69-4.04-7.06-8.39-7.06-4.01,0-7.7,1.55-7.7,6.12,0,2.88,2.15,4.08,4.65,4.69l7.49,1.85c4.35,1.16,7.96,3.05,7.96,8.09,0,2.11-.86,8.78-11.75,8.78-7.27,0-12.61-3.27-12.26-10.76h2.92Z"/>
  <path class="st0" d="M554.8,539.02h12.09l-5.94-15.75-6.15,15.75ZM559.45,520.34h3.27l12.05,30.73h-3.15l-3.74-9.55h-13.99l-3.71,9.55h-3.14l12.39-30.73Z"/>
  <path class="st1" d="M329.8,34c-39.92,0-72.28,32.36-72.28,72.28,0,6.84,1.02,11.42,2.79,17.69l27.59-26.38,44.98,40.18h-11.39v40.27c2.72.31,5.49.52,8.31.52,39.92,0,72.28-32.35,72.28-72.27s-32.36-72.28-72.28-72.28"/>
  <path class="st1" d="M156.87,88.59c-63.1,0-114.25,51.15-114.25,114.25s51.15,114.26,114.25,114.26c2.74,0,5.41-.23,8.1-.42v-67.96h-19.2l73.17-65.38,44.21,40.39,4.89,4.47c1.89-8.18,3.09-16.61,3.09-25.36,0-63.1-51.15-114.25-114.25-114.25"/>
</svg>